<?xml version="1.0" encoding="iso-8859-1"?>
<!-- Generator: Adobe Illustrator 18.0.0, SVG Export Plug-In . SVG Version: 6.00 Build 0)  -->
<!DOCTYPE svg PUBLIC "-//W3C//DTD SVG 1.1//EN" "http://www.w3.org/Graphics/SVG/1.1/DTD/svg11.dtd">
<svg xmlns="http://www.w3.org/2000/svg" xmlns:xlink="http://www.w3.org/1999/xlink" version="1.1" id="Capa_1" x="0px" y="0px" viewBox="0 0 297 297" style="enable-background:new 0 0 297 297;" xml:space="preserve" width="512px" height="512px">
<g>
	<path d="M286.966,12.981H10.034C4.493,12.981,0,17.474,0,23.015v207.699c0,5.541,4.493,10.034,10.034,10.034h155.182v33.237   c0,3.478,1.801,6.707,4.759,8.536c2.958,1.827,6.651,1.995,9.761,0.439l24.36-12.18l24.36,12.18   c1.416,0.708,2.952,1.059,4.487,1.059c1.834,0,3.664-0.503,5.275-1.498c2.958-1.828,4.759-5.058,4.759-8.536v-33.237h43.989   c5.541,0,10.034-4.493,10.034-10.034V23.015C297,17.474,292.507,12.981,286.966,12.981z M204.096,196.029   c-21.074,0-38.22-17.146-38.22-38.219s17.146-38.22,38.22-38.22s38.219,17.146,38.219,38.22S225.17,196.029,204.096,196.029z    M208.583,250.587c-1.412-0.706-2.949-1.059-4.487-1.059s-3.075,0.353-4.487,1.059l-14.327,7.163v-44.786   c5.907,2.02,12.231,3.133,18.813,3.133c6.583,0,12.907-1.113,18.813-3.133v44.786L208.583,250.587z M276.932,220.68h-33.955   v-19.493c11.902-10.679,19.406-26.166,19.406-43.378c0-32.139-26.148-58.287-58.287-58.287s-58.287,26.148-58.287,58.287   c0,17.212,7.504,32.699,19.406,43.378v19.493H20.068V33.049h256.865V220.68z" fill="#FFFFFF"/>
	<path d="M44.65,84.973h121.158c5.541,0,10.034-4.493,10.034-10.034s-4.493-10.034-10.034-10.034H44.65   c-5.541,0-10.034,4.493-10.034,10.034S39.109,84.973,44.65,84.973z" fill="#FFFFFF"/>
	<path d="M44.65,136.898h69.233c5.541,0,10.034-4.493,10.034-10.034c0-5.541-4.493-10.034-10.034-10.034H44.65   c-5.541,0-10.034,4.493-10.034,10.034C34.617,132.406,39.109,136.898,44.65,136.898z" fill="#FFFFFF"/>
	<path d="M44.65,188.823h51.925c5.541,0,10.034-4.493,10.034-10.034s-4.493-10.034-10.034-10.034H44.65   c-5.541,0-10.034,4.493-10.034,10.034S39.109,188.823,44.65,188.823z" fill="#FFFFFF"/>
</g>
<g>
</g>
<g>
</g>
<g>
</g>
<g>
</g>
<g>
</g>
<g>
</g>
<g>
</g>
<g>
</g>
<g>
</g>
<g>
</g>
<g>
</g>
<g>
</g>
<g>
</g>
<g>
</g>
<g>
</g>
</svg>
